<svg width="159" height="159" viewBox="0 0 159 159" fill="none" xmlns="http://www.w3.org/2000/svg">
    <path d="M79.066 158.132C122.733 158.132 158.132 122.733 158.132 79.066C158.132 35.3991 122.733 0 79.066 0C35.3991 0 0 35.3991 0 79.066C0 122.733 35.3991 158.132 79.066 158.132Z" fill="#E6E6E6"/>
    <path d="M79.3278 31.8863C78.2007 30.6967 75.9467 28.3174 74.8275 26.4547C73.7083 24.5919 73.7239 23.2457 73.857 22.3926C73.99 21.5394 74.2404 21.1796 75.2775 20.3653C76.3145 19.551 78.1381 18.2824 79.0575 17.6406C79.9768 16.9988 79.9882 16.9875 80.9163 17.6066C81.8444 18.2246 83.6854 19.4756 84.8486 20.3242C86.0117 21.1728 86.4969 21.6189 86.7748 22.1511C87.0526 22.6834 87.1228 23.3016 87.0371 24.0648C86.9509 24.8279 86.7083 25.7357 85.6557 27.2149C84.603 28.6942 82.7403 30.7447 81.7518 31.8372C80.7633 32.9297 80.649 33.0641 80.5786 33.1111C80.5083 33.158 80.4815 33.1187 80.4683 33.096C80.4531 33.0771 80.453 33.0773 79.3278 31.8863Z" fill="#4D4D4D"/>
    <path d="M66.1165 45.395C64.9269 44.1897 62.5476 41.7791 61.3188 39.979C60.0901 38.1788 60.0118 36.9892 60.0197 36.2066C60.0273 35.424 60.1218 35.0483 61.3191 33.6551C62.5166 32.2619 64.8176 29.8514 65.9751 28.6381C67.1327 27.4248 67.1451 27.4106 67.1867 27.4355C67.2283 27.462 67.2967 27.527 68.6362 28.9122C69.9756 30.2976 72.5857 33.0016 73.8908 34.5572C75.1959 36.1127 75.1959 36.5197 75.1489 36.9189C75.1021 37.318 75.008 37.7094 74.5934 38.4529C74.1786 39.1964 73.4429 40.2921 72.2039 41.7383C70.9649 43.1845 69.2227 44.9811 68.3445 45.8731C67.4664 46.7651 67.4505 46.7508 67.4222 46.7218C67.3919 46.6916 67.3503 46.6466 67.3284 46.6235C67.3057 46.6008 67.3059 46.6009 66.1165 45.395Z" fill="#4D4D4D"/>
    <path d="M92.4717 45.0616C91.2686 43.8532 88.8624 41.4366 87.6228 39.8168C86.3832 38.197 86.3103 37.3741 86.3312 36.6761C86.3538 35.9782 86.4664 35.4054 86.5707 35.0304C86.675 34.6555 86.7688 34.4782 87.9093 33.2438C89.0499 32.0095 91.2374 29.7178 92.3448 28.5828C93.4522 27.4478 93.4771 27.4677 94.3782 28.452C95.2793 29.4364 97.0552 31.3843 98.3808 32.8895C99.7063 34.3947 100.581 35.4572 101.102 36.1343C101.623 36.8114 101.79 37.103 100.543 38.6699C99.2959 40.2366 96.6356 43.0784 95.262 44.5472C93.8883 46.0158 93.8011 46.1116 93.7518 46.1687C93.7023 46.2258 93.6879 46.2489 93.6815 46.2591C93.6739 46.2704 93.674 46.2706 92.4717 45.0616Z" fill="#4D4D4D"/>
    <path d="M79.201 59.249C78.0395 57.9782 75.7166 55.4365 74.4874 53.9834C73.2582 52.5302 73.1228 52.1657 73.1228 51.4469C73.1228 50.7282 73.2581 49.6553 74.5083 47.8584C75.7583 46.0615 78.1228 43.5407 79.3259 42.3011C80.529 41.0614 80.5706 41.103 81.8207 42.4209C83.0709 43.7388 85.5292 46.3325 86.8105 47.8689C88.0917 49.4054 88.1959 49.8845 88.222 50.4418C88.2484 50.9991 88.1955 51.6346 86.9304 53.2596C85.6648 54.8846 83.1856 57.4991 81.8888 58.8741C80.592 60.2491 80.4773 60.3846 80.4201 60.4523C80.363 60.52 80.3623 60.52 79.201 59.249Z" fill="#4D4D4D"/>
    <path d="M53.6385 59.5042C52.9145 58.8011 51.4666 57.3949 50.7376 56.4001C50.0086 55.4053 49.9985 54.8219 50.0195 54.2021C50.0422 53.5824 50.0925 52.9261 50.9258 50.9469C51.7591 48.9677 53.3737 45.6657 54.2332 44.0773C55.0926 42.4888 55.1966 42.6135 56.3113 43.7386C57.4259 44.8637 59.5509 46.9887 60.7175 48.3689C61.8842 49.749 62.0925 50.3845 62.1602 50.9262C62.2279 51.4678 62.1565 51.9157 61.9781 52.3376C61.8012 52.7594 61.5197 53.1553 60.353 54.4262C59.1863 55.697 57.1343 57.8428 56.0321 58.9964C54.9299 60.1501 54.7776 60.3115 54.678 60.3701C54.5782 60.4287 54.5313 60.3853 54.4879 60.3399C54.4444 60.2957 54.404 60.2515 54.3839 60.2292C54.365 60.2065 54.3609 60.207 53.6385 59.5042Z" fill="#4D4D4D"/>
    <path d="M66.0082 72.4782C64.6541 71.1241 61.9457 68.4157 60.7113 66.5824C59.477 64.749 59.7166 63.7907 61.0602 61.9938C62.404 60.1969 64.8519 57.5616 66.1227 56.296C67.3936 55.0304 67.4872 55.1344 68.8675 56.5409C70.2477 57.9472 72.9143 60.6555 74.2633 62.2544C75.6123 63.8534 75.6435 64.343 75.6331 64.7337C75.6217 65.1243 75.5707 65.4159 74.3258 66.8118C73.0811 68.2076 70.6436 70.7076 69.3077 72.08C67.9717 73.4524 67.7374 73.6971 67.5964 73.8011C67.4555 73.905 67.4094 73.8691 67.3859 73.8509C67.3632 73.8321 67.3633 73.8319 66.0082 72.4782Z" fill="#4D4D4D"/>
    <path d="M105.211 58.5563C103.935 57.249 101.383 54.6345 100.149 53.0876C98.9145 51.5407 98.9979 51.0616 99.0917 50.5667C99.1854 50.0719 99.2897 49.5616 100.352 48.2438C101.415 46.9261 103.436 44.8011 104.472 43.8116C105.508 42.8221 105.56 42.968 106.019 43.8584C106.477 44.749 107.342 46.3844 108.112 47.9625C108.883 49.5407 109.56 51.0615 110.05 52.1969C110.539 53.3323 110.842 54.0823 110.253 55.2385C109.664 56.3948 108.185 57.9573 107.409 58.7958C106.633 59.6343 106.56 59.7489 106.524 59.8061C106.486 59.8632 106.486 59.8636 105.211 58.5563Z" fill="#4D4D4D"/>
    <path d="M91.8989 72.2386C90.5603 70.8636 87.8832 68.1136 86.7166 66.3168C85.5498 64.5199 85.8936 63.6761 87.3207 61.9365C88.7478 60.1969 91.2582 57.5615 92.5376 56.2177C93.8169 54.8739 93.8651 54.8219 93.9076 54.8178C93.9499 54.8141 93.9858 54.856 95.368 56.2779C96.7502 57.6998 99.478 60.5005 100.714 62.203C101.951 63.9054 101.695 64.5096 100.255 66.1868C98.8151 67.8638 96.1902 70.6138 94.8393 72.0298C93.4884 73.4457 93.4116 73.5277 93.3561 73.5694C93.3005 73.611 93.2696 73.6121 93.2533 73.6129C93.2382 73.6135 93.2381 73.6136 91.8989 72.2386Z" fill="#4D4D4D"/>
    <path d="M78.8937 85.9105C77.5499 84.5199 74.8624 81.7387 73.6124 80.0512C72.3624 78.3637 72.5499 77.7699 73.9718 76.0615C75.3938 74.3532 78.0499 71.5303 79.3985 70.129C80.747 68.7278 80.7894 68.7489 80.8884 68.8062C80.9874 68.8636 81.1439 68.9573 82.4668 70.3219C83.7897 71.6864 86.2792 74.3218 87.2376 76.1864C88.1959 78.051 87.6229 79.1447 86.2636 80.8114C84.9041 82.4781 82.7584 84.7176 81.6229 85.8947C80.4875 87.0718 80.3627 87.1862 80.3001 87.2435C80.2378 87.3009 80.2374 87.3013 78.8937 85.9105Z" fill="#4D4D4D"/>
    <path d="M53.2061 67.9574C58.3311 73.2699 68.5811 83.8949 73.7686 89.3741C78.9561 94.8533 79.081 95.1865 79.1852 102.603C79.2891 110.02 79.3726 124.52 79.1625 131.77C78.9543 139.02 78.4541 139.02 75.9749 137.207C73.4957 135.395 69.0375 131.77 65.3083 127.895C61.5791 124.02 58.5792 119.895 56.9541 117.541C55.3291 115.186 55.0792 114.603 54.9959 113.041C54.9127 111.478 54.9959 108.937 55.4543 108.145C55.9127 107.353 56.746 108.312 59.7669 111.645C62.7878 114.978 67.996 120.687 70.6835 123.603C73.371 126.52 73.5376 126.645 73.371 121.936C73.2043 117.228 72.7043 107.687 72.4543 102.77C72.2045 97.8531 72.2045 97.5615 67.7251 93.0198C63.2459 88.478 54.2877 79.6865 49.8918 74.9157C45.496 70.1449 45.6626 69.3949 45.8971 67.9808C46.1314 66.5667 46.4335 64.4886 46.621 63.3193C46.8085 62.1501 46.8815 61.8896 47.1055 61.9287C47.3296 61.9676 47.7045 62.3063 47.892 62.4756C48.0794 62.6449 48.0811 62.6449 53.2061 67.9574Z" fill="#4D4D4D"/>
    <path d="M108.047 67.1584C102.922 72.4709 92.6723 83.0959 87.4848 88.5751C82.2974 94.0543 82.1724 94.3875 82.0683 101.804C81.9644 109.221 81.8808 123.721 82.091 130.971C82.2992 138.221 82.7993 138.221 85.2786 136.408C87.7577 134.596 92.216 130.971 95.9452 127.096C99.6744 123.221 102.674 119.096 104.299 116.742C105.924 114.387 106.174 113.804 106.258 112.242C106.341 110.679 106.258 108.138 105.799 107.346C105.341 106.554 104.507 107.513 101.487 110.846C98.4657 114.179 93.2575 119.888 90.5699 122.804C87.8824 125.721 87.7158 125.846 87.8825 121.137C88.0491 116.429 88.5491 106.888 88.7992 101.971C89.049 97.0541 89.049 96.7626 93.5284 92.2208C98.0076 87.679 106.966 78.8876 111.362 74.1167C115.757 69.3459 115.591 68.5959 115.356 67.1818C115.122 65.7677 114.82 63.6896 114.632 62.5203C114.445 61.3511 114.372 61.0907 114.148 61.1297C113.924 61.1687 113.549 61.5073 113.362 61.6766C113.174 61.8459 113.172 61.8459 108.047 67.1584Z" fill="#4D4D4D"/>
</svg>
