<?xml version="1.0" encoding="UTF-8" standalone="no"?>
<!-- Created with Inkscape (http://www.inkscape.org/) -->

<svg
   width="210mm"
   height="297mm"
   viewBox="0 0 210 297"
   version="1.1"
   id="svg1"
   xml:space="preserve"
   xmlns="http://www.w3.org/2000/svg"
   xmlns:svg="http://www.w3.org/2000/svg"><defs
     id="defs1" /><g
     id="layer1"><circle
       style="fill:#e6e6e6;fill-opacity:1;stroke-width:0.63173"
       id="path2-0-3-0-5"
       cx="124.23505"
       cy="105.97807"
       r="20.91955" /><path
       style="fill:#4d4d4d;stroke:none;stroke-width:1;stroke-dasharray:none;stroke-opacity:1"
       d="m 130.47176,115.91829 c -0.29819,-0.31475 -0.89458,-0.94427 -1.1907,-1.43712 -0.29613,-0.49285 -0.29199,-0.84902 -0.25678,-1.07475 0.0352,-0.22574 0.10145,-0.32095 0.37584,-0.5364 0.27438,-0.21545 0.75687,-0.55108 1.00012,-0.72089 0.24325,-0.16982 0.24625,-0.17282 0.49181,-0.009 0.24556,0.16351 0.73266,0.49451 1.04041,0.71903 0.30775,0.22453 0.43614,0.34256 0.50965,0.48337 0.0735,0.14082 0.0921,0.30441 0.0694,0.50632 -0.0228,0.2019 -0.087,0.4421 -0.3655,0.83348 -0.27852,0.39139 -0.77136,0.93392 -1.0329,1.22298 -0.26154,0.28906 -0.29177,0.32461 -0.3104,0.33705 -0.0186,0.0124 -0.0257,0.002 -0.0292,-0.004 -0.004,-0.005 -0.004,-0.005 -0.30172,-0.32012 z"
       id="path3-0-5"
       transform="translate(-6.1674596,-22.423195)" /><path
       style="fill:#4d4d4d;stroke:none;stroke-width:1;stroke-dasharray:none;stroke-opacity:1"
       d="m 126.97628,119.49247 c -0.31476,-0.3189 -0.94428,-0.9567 -1.26939,-1.43298 -0.32511,-0.47629 -0.34581,-0.79104 -0.34373,-0.99811 0.002,-0.20707 0.027,-0.30648 0.3438,-0.67509 0.31684,-0.36861 0.92564,-1.0064 1.23191,-1.32742 0.30627,-0.32102 0.30956,-0.32476 0.32056,-0.31818 0.011,0.007 0.0291,0.0242 0.38351,0.39072 0.35439,0.36655 1.04498,1.08199 1.39029,1.49356 0.3453,0.41157 0.3453,0.51925 0.33288,0.62486 -0.0124,0.1056 -0.0373,0.20916 -0.14699,0.40588 -0.10974,0.19672 -0.3044,0.48663 -0.63222,0.86927 -0.32782,0.38264 -0.78879,0.85799 -1.02113,1.094 -0.23234,0.23601 -0.23654,0.23222 -0.24404,0.22454 -0.008,-0.008 -0.019,-0.0199 -0.0248,-0.026 -0.006,-0.006 -0.006,-0.006 -0.32069,-0.32506 z"
       id="path4-3-4"
       transform="translate(-6.1674596,-22.423195)" /><path
       style="fill:#4d4d4d;stroke:none;stroke-width:1;stroke-dasharray:none;stroke-opacity:1"
       d="m 133.94944,119.40426 c -0.31832,-0.31971 -0.95498,-0.95912 -1.28295,-1.3877 -0.32798,-0.42857 -0.34728,-0.64629 -0.34176,-0.83095 0.006,-0.18465 0.0358,-0.33623 0.0634,-0.43543 0.0276,-0.0992 0.0524,-0.1461 0.35417,-0.4727 0.30179,-0.3266 0.88056,-0.93293 1.17355,-1.23323 0.29299,-0.3003 0.29959,-0.29504 0.538,-0.0346 0.23841,0.26045 0.70831,0.77582 1.05902,1.17408 0.35072,0.39826 0.58223,0.67937 0.72004,0.85853 0.13781,0.17915 0.18189,0.2563 -0.14801,0.67085 -0.3299,0.41454 -1.03377,1.16644 -1.39722,1.55504 -0.36345,0.38859 -0.38651,0.41393 -0.39956,0.42904 -0.0131,0.0151 -0.0169,0.0212 -0.0186,0.0239 -0.002,0.003 -0.002,0.003 -0.32011,-0.31689 z"
       id="path5-9-9"
       transform="translate(-6.1674596,-22.423195)" /><path
       style="fill:#4d4d4d;stroke:none;stroke-width:1;stroke-dasharray:none;stroke-opacity:1"
       d="m 130.43821,123.15803 c -0.30731,-0.33624 -0.92191,-1.00873 -1.24714,-1.39321 -0.32522,-0.38449 -0.36104,-0.48093 -0.36104,-0.6711 0,-0.19017 0.0358,-0.47404 0.36657,-0.94947 0.33073,-0.47543 0.95635,-1.14239 1.27467,-1.47037 0.31831,-0.32799 0.32931,-0.31699 0.66008,0.0317 0.33077,0.34869 0.98119,1.03493 1.3202,1.44146 0.339,0.40653 0.36656,0.53328 0.37346,0.68074 0.007,0.14746 -0.007,0.31559 -0.34173,0.74554 -0.33486,0.42995 -0.9908,1.12171 -1.33391,1.4855 -0.34312,0.36379 -0.37345,0.39966 -0.38859,0.41757 -0.0151,0.0179 -0.0153,0.0179 -0.32257,-0.31836 z"
       id="path6-1-1"
       transform="translate(-6.1674596,-22.423195)" /><path
       style="fill:#4d4d4d;stroke:none;stroke-width:1;stroke-dasharray:none;stroke-opacity:1"
       d="m 123.67479,123.22555 c -0.19155,-0.18603 -0.57464,-0.5581 -0.76752,-0.82131 -0.19288,-0.26322 -0.19554,-0.41756 -0.18999,-0.58154 0.006,-0.16398 0.0193,-0.33762 0.2398,-0.86128 0.22048,-0.52366 0.64767,-1.39732 0.87506,-1.8176 0.2274,-0.42029 0.2549,-0.38729 0.54983,-0.0896 0.29492,0.29768 0.85715,0.85991 1.16583,1.22509 0.30868,0.36517 0.3638,0.5333 0.38171,0.67662 0.0179,0.14331 -0.001,0.26182 -0.0482,0.37344 -0.0468,0.11161 -0.12127,0.21635 -0.42996,0.5526 -0.30869,0.33625 -0.85162,0.90399 -1.14324,1.20922 -0.29162,0.30523 -0.33192,0.34793 -0.35828,0.36346 -0.0264,0.0155 -0.0388,0.004 -0.0503,-0.008 -0.0115,-0.0117 -0.0222,-0.0234 -0.0275,-0.0293 -0.005,-0.006 -0.006,-0.006 -0.19714,-0.19193 z"
       id="path7-8-2"
       transform="translate(-6.1674596,-22.423195)" /><path
       style="fill:#4d4d4d;stroke:none;stroke-width:1;stroke-dasharray:none;stroke-opacity:1"
       d="m 126.94763,126.65824 c -0.35829,-0.35828 -1.07487,-1.07487 -1.40147,-1.55994 -0.32659,-0.48507 -0.2632,-0.73862 0.0923,-1.21405 0.35554,-0.47543 1.00321,-1.17271 1.33946,-1.50756 0.33625,-0.33484 0.36101,-0.30732 0.72621,0.0648 0.36519,0.37209 1.07073,1.08866 1.42764,1.51171 0.35692,0.42305 0.36518,0.5526 0.36243,0.65597 -0.003,0.10336 -0.0165,0.18051 -0.34587,0.54983 -0.32935,0.36932 -0.97426,1.03076 -1.32773,1.39388 -0.35347,0.36312 -0.41547,0.42787 -0.45276,0.45537 -0.0373,0.0275 -0.0495,0.018 -0.0557,0.0132 -0.006,-0.005 -0.006,-0.005 -0.36452,-0.36316 z"
       id="path8-1-5"
       transform="translate(-6.1674596,-22.423195)" /><path
       style="fill:#4d4d4d;stroke:none;stroke-width:1;stroke-dasharray:none;stroke-opacity:1"
       d="m 137.32013,122.97475 c -0.33762,-0.34589 -1.01286,-1.03766 -1.33945,-1.44694 -0.32659,-0.40927 -0.30452,-0.53605 -0.2797,-0.66698 0.0248,-0.13092 0.0524,-0.26594 0.33351,-0.6146 0.28113,-0.34865 0.8158,-0.91088 1.09002,-1.1727 0.27422,-0.26181 0.288,-0.2232 0.40925,0.0124 0.12126,0.23563 0.35,0.66832 0.55395,1.08587 0.20396,0.41755 0.3831,0.81993 0.51263,1.12034 0.12953,0.30041 0.20946,0.49885 0.0537,0.80478 -0.15572,0.30593 -0.54707,0.71933 -0.75241,0.94119 -0.20533,0.22186 -0.22463,0.25216 -0.23428,0.26731 -0.01,0.0151 -0.01,0.0152 -0.34726,-0.33069 z"
       id="path9-9-0"
       transform="translate(-6.1674596,-22.423195)" /><path
       style="fill:#4d4d4d;stroke:none;stroke-width:1;stroke-dasharray:none;stroke-opacity:1"
       d="m 133.79786,126.59486 c -0.35415,-0.36381 -1.06247,-1.09141 -1.37115,-1.56683 -0.30869,-0.47541 -0.21773,-0.69867 0.15986,-1.15894 0.37759,-0.46027 1.0418,-1.15755 1.38029,-1.5131 0.3385,-0.35555 0.35124,-0.36932 0.36248,-0.37039 0.0112,-0.001 0.0207,0.0101 0.3864,0.3863 0.3657,0.37622 1.08743,1.11724 1.41454,1.56768 0.32712,0.45045 0.25959,0.61031 -0.12144,1.05405 -0.38104,0.44373 -1.07556,1.17132 -1.43298,1.54596 -0.35743,0.37464 -0.37775,0.39633 -0.39243,0.40737 -0.0147,0.011 -0.0229,0.0113 -0.0272,0.0115 -0.004,1.7e-4 -0.004,1.8e-4 -0.35834,-0.36362 z"
       id="path10-5-8"
       transform="translate(-6.1674596,-22.423195)" /><path
       style="fill:#4d4d4d;stroke:none;stroke-width:1;stroke-dasharray:none;stroke-opacity:1"
       d="m 130.3569,130.21221 c -0.35553,-0.36794 -1.0666,-1.10381 -1.39733,-1.55029 -0.33073,-0.44649 -0.28112,-0.60358 0.0951,-1.05559 0.37622,-0.452 1.079,-1.19889 1.43581,-1.56964 0.3568,-0.37075 0.368,-0.36517 0.3942,-0.35001 0.0262,0.0152 0.0676,0.04 0.41761,0.40103 0.35002,0.36104 1.00871,1.05831 1.26227,1.55165 0.25355,0.49334 0.10197,0.78272 -0.2577,1.2237 -0.35968,0.44098 -0.92742,1.03353 -1.22784,1.34496 -0.30041,0.31144 -0.33345,0.3417 -0.34999,0.35686 -0.0165,0.0152 -0.0166,0.0153 -0.37212,-0.35267 z"
       id="path11-32-3"
       transform="translate(-6.1674596,-22.423195)" /><g
       id="g49-5-9"
       style="fill:#4d4d4d"
       transform="translate(-29.740634,-17.278255)"><path
         style="opacity:1;fill:#4d4d4d;stroke:none;stroke-width:1;stroke-dasharray:none;stroke-opacity:1"
         d="m 123.56042,125.46211 c 1.35599,1.4056 4.06796,4.21679 5.44049,5.6665 1.37252,1.4497 1.40558,1.53787 1.43313,3.50024 0.0275,1.96237 0.0496,5.79875 -0.006,7.71698 -0.0551,1.91823 -0.18742,1.91823 -0.84338,1.43867 -0.65595,-0.47957 -1.83553,-1.43867 -2.82221,-2.46394 -0.98669,-1.02527 -1.78042,-2.11666 -2.21038,-2.73954 -0.42995,-0.62289 -0.49608,-0.7772 -0.51812,-1.19062 -0.022,-0.41342 2e-5,-1.08589 0.1213,-1.29535 0.12128,-0.20946 0.34176,0.0441 1.14104,0.92606 0.79927,0.88196 2.17728,2.39226 2.88836,3.16396 0.71107,0.77171 0.75514,0.80475 0.71105,-0.44101 -0.0441,-1.24577 -0.17638,-3.77029 -0.24253,-5.07117 -0.0661,-1.30088 -0.0661,-1.37802 -1.25128,-2.57969 -1.18513,-1.20168 -3.55531,-3.52776 -4.71838,-4.79004 -1.16306,-1.26229 -1.11897,-1.46072 -1.05695,-1.83486 0.062,-0.37415 0.14193,-0.92398 0.19155,-1.23335 0.0496,-0.30936 0.0689,-0.37827 0.12817,-0.36793 0.0593,0.0103 0.15848,0.0999 0.20809,0.14469 0.0496,0.0448 0.0496,0.0448 1.4056,1.4504 z"
         id="path12-2-3"
         transform="translate(23.573172,-5.1449382)" /><path
         style="opacity:1;fill:#4d4d4d;stroke:none;stroke-width:1;stroke-dasharray:none;stroke-opacity:1"
         d="m 123.56042,125.46211 c 1.35599,1.4056 4.06796,4.21679 5.44049,5.6665 1.37252,1.4497 1.40558,1.53787 1.43313,3.50024 0.0275,1.96237 0.0496,5.79875 -0.006,7.71698 -0.0551,1.91823 -0.18742,1.91823 -0.84338,1.43867 -0.65595,-0.47957 -1.83553,-1.43867 -2.82221,-2.46394 -0.98669,-1.02527 -1.78042,-2.11666 -2.21038,-2.73954 -0.42995,-0.62289 -0.49608,-0.7772 -0.51812,-1.19062 -0.022,-0.41342 2e-5,-1.08589 0.1213,-1.29535 0.12128,-0.20946 0.34176,0.0441 1.14104,0.92606 0.79927,0.88196 2.17728,2.39226 2.88836,3.16396 0.71107,0.77171 0.75514,0.80475 0.71105,-0.44101 -0.0441,-1.24577 -0.17638,-3.77029 -0.24253,-5.07117 -0.0661,-1.30088 -0.0661,-1.37802 -1.25128,-2.57969 -1.18513,-1.20168 -3.55531,-3.52776 -4.71838,-4.79004 -1.16306,-1.26229 -1.11897,-1.46072 -1.05695,-1.83486 0.062,-0.37415 0.14193,-0.92398 0.19155,-1.23335 0.0496,-0.30936 0.0689,-0.37827 0.12817,-0.36793 0.0593,0.0103 0.15848,0.0999 0.20809,0.14469 0.0496,0.0448 0.0496,0.0448 1.4056,1.4504 z"
         id="path12-6-5-9"
         transform="matrix(-1,0,0,1,285.20407,-5.3563388)" /></g></g></svg>
